<svg xmlns="http://www.w3.org/2000/svg" viewBox="0 0 100 98"><defs><style>.cls-1{fill:#221e1b;}.cls-2{fill:#ede20a;}</style></defs><title>chicken</title><g id="Layer_2" data-name="Layer 2"><g id="Layer_1-2" data-name="Layer 1"><path class="cls-1" d="M1,99V1H101V99ZM53.23,67.53c1.24,3.68,1.83,6.87,3.38,9.5,1.09,1.84,3.66,4.3,5.25,4.09,4.49-.6,9.84-1.25,13-4,7.74-6.83,13-15.66,14.12-26.29a9,9,0,0,0-1.92-6c-2.17-2.65-5.31-4.49-7.5-7.12-2.52-3-7.32-4.86-4.72-10.89,1.59-3.66-4.21-8.37-8.76-8.27-1.26,0-3.12-.28-3.7-1.12-2.15-3.12-5.17-2.79-8.07-2.37-5.73.83-12.54-1.17-16.16,5.73-.16.29-.93.26-1.41.39-3.6,1-5.66,3.3-5.87,7.06A10,10,0,0,0,31.46,31c.82-.42,2.18-.68,2.37-1.3,1.42-4.61,4-4.11,7.27-1.21.55-2,.56-3.73,1.43-4.68,1.19-1.29,4-3.13,4.45-2.74,2.93,2.39,4.76.33,6.89-1,1.78-1.13,3.87-2.27,4.76.7,1.13,3.74,3.38,4.07,6.7,3.4,1.06-.21,2.41,1.06,3.63,1.65-.67.94-1.32,1.91-2,2.83s-2.17,1.91-2,2.67c.16,1,1.46,1.91,2.43,2.65,1.16.87,2.77,1.26,3.69,2.3,4.3,4.84,8.43,9.83,12.65,14.8-1.45,12.79-7.64,22.26-22,25.14-1.23-2.57-2.63-5.3-3.85-8.11-2.54-5.83-5.22-6.25-9.71-1.89-3,2.92-5.64,6.83-11.72,6.75,1.15-3.08,2.09-5.44,2.9-7.84,2.23-6.56,1.84-7.13-4.94-7.51-4.42-.24-8.84-.43-14.47-.7,1.48-1.76,2.09-2.89,3-3.53a95.71,95.71,0,0,1,8.22-5.14c3.89-2.13,5.18-4.91,2.8-8.92l-3-5c-.83,2-2.17,3.73-1.76,4.6,1.38,2.92.43,4-2.05,5.8A100.3,100.3,0,0,0,15.35,55.1c-3.67,3.6-3.48,5.2,1.24,6.41A56.66,56.66,0,0,0,29.88,62.8c4.06,0,5,1.67,3.95,5.28-.87,3-1.67,6-2.24,9a3.33,3.33,0,0,0,.89,2.82,3.44,3.44,0,0,0,3,0,48.79,48.79,0,0,0,6.19-3.85C45.35,73.45,49,70.7,53.23,67.53ZM50.17,36.61c-6.88.8-9.05,3.1-8.32,9.2.48,4,4.83,7.49,8.58,6.89,4.72-.74,7.48-4.92,6.78-9.6-2,.17-5.06,1.14-5.65.33C50.4,41.81,50.6,39.22,50.17,36.61Z" transform="translate(-1 -1)"/><path class="cls-2" d="M53.23,67.53C49,70.7,45.35,73.45,41.66,76.09a48.79,48.79,0,0,1-6.19,3.85,3.44,3.44,0,0,1-3,0,3.33,3.33,0,0,1-.89-2.82c.57-3,1.37-6,2.24-9,1-3.61.11-5.24-3.95-5.28a56.66,56.66,0,0,1-13.29-1.29c-4.72-1.21-4.91-2.81-1.24-6.41A100.3,100.3,0,0,1,27.08,44.71c2.48-1.76,3.43-2.88,2.05-5.8-.41-.87.93-2.56,1.76-4.6l3,5c2.38,4,1.09,6.79-2.8,8.92a95.71,95.71,0,0,0-8.22,5.14c-.94.64-1.55,1.77-3,3.53,5.63.27,10.05.46,14.47.7,6.78.38,7.17.95,4.94,7.51-.81,2.4-1.75,4.76-2.9,7.84,6.08.08,8.71-3.83,11.72-6.75,4.49-4.36,7.17-3.94,9.71,1.89,1.22,2.81,2.62,5.54,3.85,8.11,14.41-2.88,20.6-12.35,22-25.14-4.22-5-8.35-10-12.65-14.8-.92-1-2.53-1.43-3.69-2.3-1-.74-2.27-1.65-2.43-2.65-.12-.76,1.34-1.74,2-2.67s1.35-1.89,2-2.83c-1.22-.59-2.57-1.86-3.63-1.65-3.32.67-5.57.34-6.7-3.4-.89-3-3-1.83-4.76-.7-2.13,1.34-4,3.4-6.89,1-.47-.39-3.26,1.45-4.45,2.74-.87.95-.88,2.7-1.43,4.68-3.25-2.9-5.85-3.4-7.27,1.21-.19.62-1.55.88-2.37,1.3a10,10,0,0,1-.61-2.73c.21-3.76,2.27-6.08,5.87-7.06.48-.13,1.25-.1,1.41-.39,3.62-6.9,10.43-4.9,16.16-5.73,2.9-.42,5.92-.75,8.07,2.37.58.84,2.44,1.15,3.7,1.12,4.55-.1,10.35,4.61,8.76,8.27-2.6,6,2.2,7.84,4.72,10.89,2.19,2.63,5.33,4.47,7.5,7.12a9,9,0,0,1,1.92,6c-1.08,10.63-6.38,19.46-14.12,26.29-3.14,2.76-8.49,3.41-13,4-1.59.21-4.16-2.25-5.25-4.09C55.06,74.4,54.47,71.21,53.23,67.53Z" transform="translate(-1 -1)"/><path class="cls-2" d="M50.17,36.61c.43,2.61.23,5.2,1.39,6.82.59.81,3.65-.16,5.65-.33.7,4.68-2.06,8.86-6.78,9.6-3.75.6-8.1-2.9-8.58-6.89C41.12,39.71,43.29,37.41,50.17,36.61Z" transform="translate(-1 -1)"/></g></g></svg>