<svg xmlns="http://www.w3.org/2000/svg" viewBox="0 0 96 99"><defs><style>.cls-1{fill:#fff;}</style></defs><title>cow</title><g id="Layer_2" data-name="Layer 2"><g id="Layer_1-2" data-name="Layer 1"><path d="M1,100V1H97v99ZM23.62,57c1,2.07,1.4,4.3,2.73,5.59,3.43,3.29,4,7.23,4.16,11.66.17,6.21,3.82,10.36,9.47,12.15,4,1.27,8.44,1.23,12.66,2,2.32.4,5,.62,6.81,1.9,10.12,7.07,18.18,4,20.64-8.23a12.11,12.11,0,0,1,5.85-8.69C92.08,69.54,93.23,63,89.16,57c-1.46-2.16-3.27-4.07-4.89-6.06,5.67-5.49,5.86-6.7,1.1-12.61-1.74-2.16-4.3-3.64-6.16-5.73-1.13-1.29-2.43-3.21-2.28-4.71.78-7.83-3.08-13-9.62-15.83a15.83,15.83,0,0,0-10.71-.28c-1.7.6-2.07,5-3.07,7.75-1.72-.16-4.38.14-6.56-.75-4.88-2-11.4,1.16-15.09-5.07-.69-1.17-4.05-1.36-6-1.06-9.63,1.45-15.78,12.32-11.93,21.23,1.21,2.78.75,4.19-1.16,6.44-2.17,2.57-5.34,7.17-4.4,8.89,1.81,3.34,6,5.54,9.59,7.68C19.26,57.64,21.48,57,23.62,57Z" transform="translate(-1 -1)"/><path class="cls-1" d="M23.62,57c-2.14,0-4.36.67-5.68-.13-3.55-2.14-7.78-4.34-9.59-7.68-.94-1.72,2.23-6.32,4.4-8.89,1.91-2.25,2.37-3.66,1.16-6.44-3.85-8.91,2.3-19.78,11.93-21.23,2-.3,5.35-.11,6,1.06,3.69,6.23,10.21,3.07,15.09,5.07,2.18.89,4.84.59,6.56.75,1-2.78,1.37-7.15,3.07-7.75A15.83,15.83,0,0,1,67.31,12c6.54,2.83,10.4,8,9.62,15.83-.15,1.5,1.15,3.42,2.28,4.71,1.86,2.09,4.42,3.57,6.16,5.73,4.76,5.91,4.57,7.12-1.1,12.61,1.62,2,3.43,3.9,4.89,6.06,4.07,6,2.92,12.59-3.22,16.36A12.11,12.11,0,0,0,80.09,82c-2.46,12.26-10.52,15.3-20.64,8.23-1.83-1.28-4.49-1.5-6.81-1.9-4.22-.73-8.64-.69-12.66-2-5.65-1.79-9.3-5.94-9.47-12.15-.13-4.43-.73-8.37-4.16-11.66C25,61.27,24.59,59,23.62,57ZM37,30.16c-3.85-.42-7.4.24-9.3-1.23-4.74-3.68-.34-7.52,1.56-11.68-4.89-.19-7.65,2.14-10,5.25-4.86,6.38.32,11.06,3.09,16.17-2.37,1.76-4.82,3-6.48,5-1.26,1.48-1.5,3.83-2.2,5.79a73.63,73.63,0,0,0,8.1,2.31c.82.14,1.84-1.33,2.88-1.8a26.07,26.07,0,0,1,3.53-1.07c.8,4.19.4,8.55,2.37,11,3.41,4.28,5.43,8.51,5,11.76-.47-2.46,2.74-3.13,6-3.38,4.64-.35,9.3-.42,13.95-.6,3.63-.14,5.39,1.69,6,5.22,1,5.54-2.42,7.77-6.32,9,3.16,2,6.33,4.2,9.65,6.14,4.27,2.49,8.32.94,9.91-3.73.59-1.72.51-3.74,1.35-5.3,1.6-3,3.1-6.35,5.61-8.34,6.1-4.85,6.78-8,1.42-13.78-2.65-2.88-5.63-5.44-9-8.64a21.89,21.89,0,0,0,3.1-.73c2-.86,4-1.82,6-2.74-1-1.8-1.66-4.09-3.17-5.3C77,37.08,73.52,35.23,70,33c2.33-5,4.1-10.32-1.33-14.68-2.55-2.05-5.3-4.43-9.32-2.62,5.73,7.48,5.77,8.54.82,12.43-4-1.1-7.63-4.36-12.26-2.39-4.35-4.76-8.6,1.8-13.94-1.39Z" transform="translate(-1 -1)"/><path d="M37,30.16l-3.09-5.83c5.34,3.19,9.59-3.37,13.94,1.39,4.63-2,8.23,1.29,12.26,2.39,4.95-3.89,4.91-4.95-.82-12.43,4-1.81,6.77.57,9.32,2.62C74.06,22.66,72.29,28,70,33c3.56,2.25,7.06,4.1,10.09,6.54,1.51,1.21,2.14,3.5,3.17,5.3-2,.92-4,1.88-6,2.74a21.89,21.89,0,0,1-3.1.73c3.35,3.2,6.33,5.76,9,8.64,5.36,5.81,4.68,8.93-1.42,13.78-2.51,2-4,5.39-5.61,8.34-.84,1.56-.76,3.58-1.35,5.3-1.59,4.67-5.64,6.22-9.91,3.73-3.32-1.94-6.49-4.12-9.65-6.14,3.9-1.28,7.27-3.51,6.32-9-.6-3.53-2.36-5.36-6-5.22-4.65.18-9.31.25-13.95.6-3.28.25-6.49.92-6,3.38.46-3.25-1.56-7.48-5-11.76-2-2.46-1.57-6.82-2.37-11A26.07,26.07,0,0,0,24.64,50c-1,.47-2.06,1.94-2.88,1.8a73.63,73.63,0,0,1-8.1-2.31c.7-2,.94-4.31,2.2-5.79,1.66-1.95,4.11-3.22,6.48-5-2.77-5.11-7.95-9.79-3.09-16.17,2.38-3.11,5.14-5.44,10-5.25-1.9,4.16-6.3,8-1.56,11.68C29.62,30.4,33.17,29.74,37,30.16ZM66.77,54c.76-6.9-5.79-2.47-7.72-5.16-1.34,1.67-3.69,3.28-3.79,5-.19,3.56,2.19,5.9,6,5.76C64.75,59.52,66.66,57.47,66.77,54Zm-23-.6c-2.63-1.82-3.94-3.13-5.51-3.69-1.14-.4-3.52-.22-3.8.4-1,2.15-2.25,4.92-1.62,6.89,1,3,3.91,4.41,7.26,2.93C43.8,58.34,44.52,55.5,43.79,53.43Z" transform="translate(-1 -1)"/><path class="cls-1" d="M66.77,54c-.11,3.44-2,5.49-5.51,5.62-3.81.14-6.19-2.2-6-5.76.1-1.74,2.45-3.35,3.79-5C61,51.56,67.53,47.13,66.77,54Z" transform="translate(-1 -1)"/><path class="cls-1" d="M43.79,53.43c.73,2.07,0,4.91-3.67,6.53-3.35,1.48-6.3.09-7.26-2.93-.63-2,.64-4.74,1.62-6.89.28-.62,2.66-.8,3.8-.4C39.85,50.3,41.16,51.61,43.79,53.43Z" transform="translate(-1 -1)"/></g></g></svg>