<svg xmlns="http://www.w3.org/2000/svg" viewBox="0 0 95 99"><defs><style>.cls-1{fill:#1f1e1c;}.cls-2{fill:#07b83f;}</style></defs><title>deathray</title><g id="Layer_2" data-name="Layer 2"><g id="Layer_1-2" data-name="Layer 1"><path class="cls-1" d="M1,100V1H96v99ZM38.05,13.92c-2.11.26-4.67-.16-6.26.9-5.5,3.64-10.76,7.66-15.9,11.79a54.39,54.39,0,0,0-7.84,7.63c-6.11,7.34-5,14.2,3,19.32a44.7,44.7,0,0,0,9,4.59c3.51,1.21,7.57,1,10.85,2.6,5.76,2.75,11.6,2.28,17.57,2.11,1.43,0,2.89.83,4.33,1.28l-.12,1.51c-1.43.64-2.81,1.66-4.29,1.85-4.73.62-9.56.62-14.23,1.51-2.11.4-5.73,2.7-5.57,3.52,1.12,5.67-3.75,7.61-6.16,10.93-2.09,2.86-3.15,5.64-1.11,8.67s4.87,3.46,8.39,2.71c3.8-.81,7.68-3.81,11.71-.25.44.4,2.15.06,2.72-.5,2.74-2.7,5.88-5.25,7.75-8.5,2.37-4.12,5.22-6.37,9.94-5.81,5.76.68,9.6-2.51,12.34-6.75s2-8.91-1.13-13c-1-1.32-1.93-2.69-2.87-4,4-8.71,4-8.65,10.68-14.34a41.68,41.68,0,0,0,6.24-6.43c7.11-9.47,4.09-20.74-7.39-23-11.93-2.3-24.36-2-36.57-2.83a4,4,0,0,0-2.8.87A21.41,21.41,0,0,0,37.92,14Z" transform="translate(-1 -1)"/><path class="cls-2" d="M37.92,14a21.41,21.41,0,0,1,2.5-3.72,4,4,0,0,1,2.8-.87c12.21.78,24.64.53,36.57,2.83,11.48,2.22,14.5,13.49,7.39,23a41.68,41.68,0,0,1-6.24,6.43C74.31,47.35,74.26,47.29,70.26,56c.94,1.31,1.87,2.68,2.87,4,3.14,4.12,3.92,8.72,1.13,13s-6.58,7.43-12.34,6.75c-4.72-.56-7.57,1.69-9.94,5.81-1.87,3.25-5,5.8-7.75,8.5-.57.56-2.28.9-2.72.5-4-3.56-7.91-.56-11.71.25-3.52.75-6.42.2-8.39-2.71s-1-5.81,1.11-8.67c2.41-3.32,7.28-5.26,6.16-10.93-.16-.82,3.46-3.12,5.57-3.52,4.67-.89,9.5-.89,14.23-1.51,1.48-.19,2.86-1.21,4.29-1.85l.12-1.51c-1.44-.45-2.9-1.32-4.33-1.28-6,.17-11.81.64-17.57-2.11-3.28-1.57-7.34-1.39-10.85-2.6a44.7,44.7,0,0,1-9-4.59c-8-5.12-9.16-12-3-19.32a54.39,54.39,0,0,1,7.84-7.63c5.14-4.13,10.4-8.15,15.9-11.79,1.59-1.06,4.15-.64,6.26-.9a32.65,32.65,0,0,1-3.43,4C27.2,24.35,19.79,30.75,12.19,36.91c-3.3,2.69-5,6.05-3.58,9.8A10.46,10.46,0,0,0,18,53.83c5,.38,10.24.17,14.7,1.94C39,58.27,44.92,59.6,51.6,58.24c1.5-.31,4.22.68,4.85,1.87.95,1.82,1.38,4.71.58,6.49-1.72,3.86-11.92,7.27-16.48,6.66a12.64,12.64,0,0,0-5.49,1.35c.83,4.45-1.92,7-4.54,9.78-.53.56-.08,2.06-.08,4.45,2.87-1.57,4.92-3.57,6.93-3.54,2.16,0,4.29,2,6.55,3.16a1.77,1.77,0,0,0,.64-.37,5.34,5.34,0,0,0,1.21-1.57C49,78.14,54.41,73.57,64,74.1c2.2.12,5.66-2.8,6.52-5.08.68-1.79-1.55-4.87-2.88-7.15-.6-1-2.36-1.27-3.25-2.2-2-2.08-3-4.26-.45-6.89,5.94-6.08,11.74-12.3,17.56-18.5a24.42,24.42,0,0,0,2-2.89c4.1-6,2.85-11.92-4.19-13.66-8.7-2.16-17.85-2.57-26.8-3.73l-.24,1.49c2.14.81,4.36,1.44,6.4,2.45,6.36,3.13,7.23,7.52,1.3,11.12s-12.55,5.85-19.15,7.76c-4.35,1.26-10.27,2-12.55-3s2-9.13,5.69-12.18c3.21-2.64,7.1-4.46,11.38-7ZM28.58,87.65c-.58-.25-1-.62-1.31-.53s-.63.61-.93.94c.34.25.74.75,1,.68S28.05,88.15,28.58,87.65Z" transform="translate(-1 -1)"/><path class="cls-1" d="M37.92,14l7.37.51C41,17.13,37.12,19,33.91,21.59c-3.71,3.05-8,7.1-5.69,12.18s8.2,4.31,12.55,3c6.6-1.91,13.32-4.22,19.15-7.76s5.06-8-1.3-11.12c-2-1-4.26-1.64-6.4-2.45L52.46,14c8.95,1.16,18.1,1.57,26.8,3.73,7,1.74,8.29,7.68,4.19,13.66a24.42,24.42,0,0,1-2,2.89c-5.82,6.2-11.62,12.42-17.56,18.5-2.57,2.63-1.55,4.81.45,6.89.89.93,2.65,1.19,3.25,2.2C69,64.15,71.19,67.23,70.51,69c-.86,2.28-4.32,5.2-6.52,5.08-9.58-.53-15,4-18.22,12.42a5.34,5.34,0,0,1-1.21,1.57,1.77,1.77,0,0,1-.64.37c-2.26-1.18-4.39-3.13-6.55-3.16-2,0-4.06,2-6.93,3.54,0-2.39-.45-3.89.08-4.45,2.62-2.78,5.37-5.33,4.54-9.78a12.64,12.64,0,0,1,5.49-1.35c4.56.61,14.76-2.8,16.48-6.66.8-1.78.37-4.67-.58-6.49-.63-1.19-3.35-2.18-4.85-1.87-6.68,1.36-12.64,0-18.93-2.47C28.21,54,22.92,54.21,18,53.83a10.46,10.46,0,0,1-9.36-7.12c-1.42-3.75.28-7.11,3.58-9.8,7.6-6.16,15-12.56,22.43-18.95a32.65,32.65,0,0,0,3.43-4ZM69.26,67.92c-2.39-2-3.73-4.09-5.06-4.08s-2.74,2-4.11,3.13c1.32,1.34,2.45,3.2,4,3.81C65,71.13,66.73,69.41,69.26,67.92Z" transform="translate(-1 -1)"/><path class="cls-1" d="M28.58,87.65c-.53.5-.83,1-1.23,1.09s-.67-.43-1-.68c.3-.33.56-.82.93-.94S28,87.4,28.58,87.65Z" transform="translate(-1 -1)"/><path class="cls-2" d="M69.26,67.92c-2.53,1.49-4.22,3.21-5.12,2.86-1.6-.61-2.73-2.47-4-3.81,1.37-1.13,2.73-3.12,4.11-3.13S66.87,65.87,69.26,67.92Z" transform="translate(-1 -1)"/></g></g></svg>