<svg xmlns="http://www.w3.org/2000/svg" viewBox="0 0 97 99"><defs><style>.cls-1{fill:#1e1e1f;}.cls-2{fill:#018fb7;}</style></defs><title>human</title><g id="Layer_2" data-name="Layer 2"><g id="Layer_1-2" data-name="Layer 1"><path class="cls-1" d="M1,100V1H98v99Zm49.42-6.18c6.52,0,9.65-.5,14.1-5.84,5.24-6.3,9.28-13.61,13.82-20.49,1-1.48,1.64-3.27,2.89-4.44,6.62-6.14,8-12.53,4.4-21a15.37,15.37,0,0,1-.84-5.3C84.29,24,76.3,15.58,63.73,14.63A7.06,7.06,0,0,1,60.87,14c-9.16-5.08-18.47-4.05-27.3.26-3.9,1.9-6.66,6-10.23,8.71-4.91,3.73-1.69,10.67-6.07,14.51-.12.1.23,1,.57,1.29,3.05,2.37,2.21,5.44,2,8.64a23.27,23.27,0,0,0,1.06,7.82c1.55,5.52,3.41,10.94,5.15,16.4.45,1.43.82,2.89,1.37,4.28C31.7,86.86,39.1,94.15,50.42,93.82Z" transform="translate(-1 -1)"/><path class="cls-2" d="M50.42,93.82c-11.32.33-18.72-7-23-17.95-.55-1.39-.92-2.85-1.37-4.28-1.74-5.46-3.6-10.88-5.15-16.4a23.27,23.27,0,0,1-1.06-7.82c.24-3.2,1.08-6.27-2-8.64-.34-.27-.69-1.19-.57-1.29,4.38-3.84,1.16-10.78,6.07-14.51,3.57-2.71,6.33-6.81,10.23-8.71C42.4,9.91,51.71,8.88,60.87,14a7.06,7.06,0,0,0,2.86.67C76.3,15.58,84.29,24,84.79,36.75a15.37,15.37,0,0,0,.84,5.3c3.56,8.47,2.22,14.86-4.4,21-1.25,1.17-1.91,3-2.89,4.44C73.8,74.37,69.76,81.68,64.52,88,60.07,93.32,56.94,93.8,50.42,93.82Zm-27-57.22c3.41,3.12,4.25,6.16,1.88,10.14-.89,1.49-.56,4.72.53,6.19,3.94,5.38,4.15,11.68,5.57,17.76A34,34,0,0,0,36.19,81c4.44,6.87,18.34,9.69,23.84,3.86s9-13.3,13.37-20c1.36-2.08,2.48-4.55,4.36-6,4.23-3.25,5.7-9.94,3.06-14.27A11.29,11.29,0,0,1,79.15,38C80,29.93,73,17.7,62.61,20.63c-1.08.3-2.76-.72-3.91-1.5-5.85-4-18.85-3.85-24.27.4-.5.39-1.33,1-1.26,1.41.62,3.77-2.6,4.06-4.68,5.4-.37.24-.53.79-.8,1.22l1.91,3.91Z" transform="translate(-1 -1)"/><path class="cls-1" d="M23.41,36.6l6.19-5.13-1.91-3.91c.27-.43.43-1,.8-1.22,2.08-1.34,5.3-1.63,4.68-5.4-.07-.4.76-1,1.26-1.41,5.42-4.25,18.42-4.39,24.27-.4,1.15.78,2.83,1.8,3.91,1.5C73,17.7,80,29.93,79.15,38a11.29,11.29,0,0,0,1.67,6.53c2.64,4.33,1.17,11-3.06,14.27-1.88,1.45-3,3.92-4.36,6C69,71.56,65.46,79.1,60,84.86s-19.4,3-23.84-3.86a34,34,0,0,1-4.8-10.31C30,64.61,29.76,58.31,25.82,52.93c-1.09-1.47-1.42-4.7-.53-6.19C27.66,42.76,26.82,39.72,23.41,36.6Zm15.3,38.75c4.46-.92,8.13-2.18,11.84-2.3S58,74,61.94,74.54c1.28-4.05,2.36-8.15-1.34-11.42-4.4-3.89-15.07-3.83-20.19.34C36.62,66.55,38.24,70.93,38.71,75.35ZM36.11,41.4c-1,5.57,1.45,9.54,6.08,10.2a7.66,7.66,0,0,0,8.57-6.51c.58-4.45-2.24-7.62-7-7.91C42.41,43.31,42.18,43.45,36.11,41.4ZM53.86,43c3.19,7.26,6.53,9.71,10.77,8.48,3.94-1.14,6.17-3.84,5.89-8.07-.27-4-3.43-6.47-8.52-6.66C63.32,42.86,59.32,43.7,53.86,43Z" transform="translate(-1 -1)"/><path class="cls-2" d="M38.71,75.35c-.47-4.42-2.09-8.8,1.7-11.89,5.12-4.17,15.79-4.23,20.19-.34,3.7,3.27,2.62,7.37,1.34,11.42-4-.57-7.69-1.6-11.39-1.49S43.17,74.43,38.71,75.35Z" transform="translate(-1 -1)"/><path class="cls-2" d="M36.11,41.4c6.07,2.05,6.3,1.91,7.63-4.22,4.78.29,7.6,3.46,7,7.91a7.66,7.66,0,0,1-8.57,6.51C37.56,50.94,35.08,47,36.11,41.4Z" transform="translate(-1 -1)"/><path class="cls-2" d="M53.86,43c5.46.71,9.46-.13,8.14-6.25,5.09.19,8.25,2.66,8.52,6.66.28,4.23-2,6.93-5.89,8.07C60.39,52.7,57.05,50.25,53.86,43Z" transform="translate(-1 -1)"/></g></g></svg>