<svg xmlns="http://www.w3.org/2000/svg" viewBox="0 0 103 98"><defs><style>.cls-1{fill:#221c1c;}.cls-2{fill:#f60102;}</style></defs><title>tank</title><g id="Layer_2" data-name="Layer 2"><g id="Layer_1-2" data-name="Layer 1"><path class="cls-1" d="M1,99V1H104V99ZM55.1,74.77c8.49,0,17,.16,25.47,0,5.64-.14,9.4-3.22,11.1-8.46,1.42-4.38-.5-8-3.44-10.77-4.89-4.67-7.78-10.18-8.14-16.87-.18-3.31-1.43-5-4.83-4.8-3.09.21-5.44-.29-6.18-4.06-.19-1-2.57-2-4-2.08a99.75,99.75,0,0,0-12-.06c-1.37.07-3.32.57-3.93,1.54-2,3.15-4.63,2.9-7.45,2.15-6.47-1.74-12.91-3.6-19.35-5.46-3.83-1.1-6.34-.6-7.12,4.08s1.35,6.51,5.57,6.65c3.62.12,7.32-.39,10.85.2,1.58.27,3.9,2.49,4,3.91.08,1.7-1.83,3.54-3,5.22a42.1,42.1,0,0,1-2.95,3.46c-1.1,1.25-2,3-3.37,3.67-5.65,2.92-8.84,7.81-7.76,12.49,1.34,5.82,5.72,9.13,12.59,9.23C39.11,74.86,47.1,74.78,55.1,74.77Z" transform="translate(-1 -1)"/><path class="cls-2" d="M55.1,74.78c-8,0-16,.08-24,0-6.87-.1-11.25-3.41-12.59-9.23C17.45,60.85,20.64,56,26.29,53c1.39-.72,2.27-2.42,3.37-3.67a42.1,42.1,0,0,0,2.95-3.46c1.19-1.68,3.1-3.52,3-5.22-.06-1.42-2.38-3.64-4-3.91-3.53-.59-7.23-.08-10.85-.2-4.22-.14-6.37-1.86-5.57-6.65s3.29-5.18,7.12-4.08c6.44,1.86,12.88,3.72,19.35,5.46,2.82.75,5.49,1,7.45-2.15.61-1,2.56-1.47,3.93-1.54a99.75,99.75,0,0,1,12,.06c1.43.11,3.81,1.13,4,2.08.74,3.77,3.09,4.27,6.18,4.06,3.4-.22,4.65,1.49,4.83,4.8.36,6.69,3.25,12.2,8.14,16.87,2.94,2.81,4.86,6.39,3.44,10.77-1.7,5.24-5.46,8.32-11.1,8.46C72.08,74.93,63.59,74.77,55.1,74.78Zm4.42-37.29c-5,1.94-6.45,4.77-3.13,8.94h5.88C65.56,42,63.5,39.46,59.52,37.49Z" transform="translate(-1 -1)"/><path class="cls-1" d="M59.52,37.49c4,2,6,4.47,2.75,8.94H56.39C53.07,42.26,54.51,39.43,59.52,37.49Z" transform="translate(-1 -1)"/></g></g></svg>